<mxfile host="app.diagrams.net" modified="2024-05-11T08:27:30.629Z" agent="Mozilla/5.0 (Windows NT 10.0; Win64; x64) AppleWebKit/537.36 (KHTML, like Gecko) Chrome/124.0.0.0 Safari/537.36 Edg/124.0.0.0" etag="mGnwIHOCDP5CRIikG9Mz" version="24.3.1" type="google" pages="2">
  <diagram name="Page-1" id="kotJY6fn1ZIS9Apb7NXT">
    <mxGraphModel dx="832" dy="439" grid="1" gridSize="10" guides="1" tooltips="1" connect="1" arrows="1" fold="1" page="1" pageScale="1" pageWidth="850" pageHeight="1100" math="0" shadow="0">
      <root>
        <mxCell id="0" />
        <mxCell id="1" parent="0" />
        <mxCell id="vlXrMkDSXZ-aQoCrQ8EA-5" value="Program" style="swimlane;fontStyle=1;align=center;verticalAlign=top;childLayout=stackLayout;horizontal=1;startSize=26;horizontalStack=0;resizeParent=1;resizeParentMax=0;resizeLast=0;collapsible=1;marginBottom=0;whiteSpace=wrap;html=1;" vertex="1" parent="1">
          <mxGeometry x="20" y="60" width="160" height="84" as="geometry" />
        </mxCell>
        <mxCell id="vlXrMkDSXZ-aQoCrQ8EA-6" value="+ choice: string" style="text;strokeColor=none;fillColor=none;align=left;verticalAlign=top;spacingLeft=4;spacingRight=4;overflow=hidden;rotatable=0;points=[[0,0.5],[1,0.5]];portConstraint=eastwest;whiteSpace=wrap;html=1;" vertex="1" parent="vlXrMkDSXZ-aQoCrQ8EA-5">
          <mxGeometry y="26" width="160" height="24" as="geometry" />
        </mxCell>
        <mxCell id="vlXrMkDSXZ-aQoCrQ8EA-7" value="" style="line;strokeWidth=1;fillColor=none;align=left;verticalAlign=middle;spacingTop=-1;spacingLeft=3;spacingRight=3;rotatable=0;labelPosition=right;points=[];portConstraint=eastwest;strokeColor=inherit;" vertex="1" parent="vlXrMkDSXZ-aQoCrQ8EA-5">
          <mxGeometry y="50" width="160" height="8" as="geometry" />
        </mxCell>
        <mxCell id="vlXrMkDSXZ-aQoCrQ8EA-8" value="+ menu(string&lt;span style=&quot;background-color: initial;&quot;&gt;): void&lt;/span&gt;" style="text;strokeColor=none;fillColor=none;align=left;verticalAlign=top;spacingLeft=4;spacingRight=4;overflow=hidden;rotatable=0;points=[[0,0.5],[1,0.5]];portConstraint=eastwest;whiteSpace=wrap;html=1;" vertex="1" parent="vlXrMkDSXZ-aQoCrQ8EA-5">
          <mxGeometry y="58" width="160" height="26" as="geometry" />
        </mxCell>
        <mxCell id="vlXrMkDSXZ-aQoCrQ8EA-13" value="Entry Class" style="swimlane;fontStyle=1;align=center;verticalAlign=top;childLayout=stackLayout;horizontal=1;startSize=26;horizontalStack=0;resizeParent=1;resizeParentMax=0;resizeLast=0;collapsible=1;marginBottom=0;whiteSpace=wrap;html=1;" vertex="1" parent="1">
          <mxGeometry x="580" y="260" width="220" height="160" as="geometry" />
        </mxCell>
        <mxCell id="vlXrMkDSXZ-aQoCrQ8EA-14" value="-&lt;span style=&quot;background-color: initial;&quot;&gt;&amp;nbsp;date: string&lt;/span&gt;&lt;div&gt;&lt;div&gt;- prompt: string&lt;/div&gt;&lt;div&gt;- text: string&lt;/div&gt;&lt;/div&gt;" style="text;strokeColor=none;fillColor=none;align=left;verticalAlign=top;spacingLeft=4;spacingRight=4;overflow=hidden;rotatable=0;points=[[0,0.5],[1,0.5]];portConstraint=eastwest;whiteSpace=wrap;html=1;" vertex="1" parent="vlXrMkDSXZ-aQoCrQ8EA-13">
          <mxGeometry y="26" width="220" height="64" as="geometry" />
        </mxCell>
        <mxCell id="vlXrMkDSXZ-aQoCrQ8EA-15" value="" style="line;strokeWidth=1;fillColor=none;align=left;verticalAlign=middle;spacingTop=-1;spacingLeft=3;spacingRight=3;rotatable=0;labelPosition=right;points=[];portConstraint=eastwest;strokeColor=inherit;" vertex="1" parent="vlXrMkDSXZ-aQoCrQ8EA-13">
          <mxGeometry y="90" width="220" height="8" as="geometry" />
        </mxCell>
        <mxCell id="vlXrMkDSXZ-aQoCrQ8EA-16" value="+ GetPrompts(string,string,string): string&amp;nbsp;&lt;div&gt;+ StoreResponse(list): void&lt;/div&gt;" style="text;strokeColor=none;fillColor=none;align=left;verticalAlign=top;spacingLeft=4;spacingRight=4;overflow=hidden;rotatable=0;points=[[0,0.5],[1,0.5]];portConstraint=eastwest;whiteSpace=wrap;html=1;" vertex="1" parent="vlXrMkDSXZ-aQoCrQ8EA-13">
          <mxGeometry y="98" width="220" height="62" as="geometry" />
        </mxCell>
        <mxCell id="vlXrMkDSXZ-aQoCrQ8EA-18" value="Journal Class" style="swimlane;fontStyle=1;align=center;verticalAlign=top;childLayout=stackLayout;horizontal=1;startSize=26;horizontalStack=0;resizeParent=1;resizeParentMax=0;resizeLast=0;collapsible=1;marginBottom=0;whiteSpace=wrap;html=1;" vertex="1" parent="1">
          <mxGeometry x="280" y="60" width="240" height="190" as="geometry" />
        </mxCell>
        <mxCell id="vlXrMkDSXZ-aQoCrQ8EA-19" value="- entries: list&lt;div&gt;-&lt;span style=&quot;background-color: initial;&quot;&gt;&amp;nbsp;prompts: list&lt;/span&gt;&lt;/div&gt;&lt;div&gt;&lt;span style=&quot;background-color: initial;&quot;&gt;- importLocation: string&lt;/span&gt;&lt;/div&gt;&lt;div&gt;&lt;span style=&quot;background-color: initial;&quot;&gt;- exportLocation: string&lt;/span&gt;&lt;/div&gt;" style="text;strokeColor=none;fillColor=none;align=left;verticalAlign=top;spacingLeft=4;spacingRight=4;overflow=hidden;rotatable=0;points=[[0,0.5],[1,0.5]];portConstraint=eastwest;whiteSpace=wrap;html=1;" vertex="1" parent="vlXrMkDSXZ-aQoCrQ8EA-18">
          <mxGeometry y="26" width="240" height="84" as="geometry" />
        </mxCell>
        <mxCell id="vlXrMkDSXZ-aQoCrQ8EA-20" value="" style="line;strokeWidth=1;fillColor=none;align=left;verticalAlign=middle;spacingTop=-1;spacingLeft=3;spacingRight=3;rotatable=0;labelPosition=right;points=[];portConstraint=eastwest;strokeColor=inherit;" vertex="1" parent="vlXrMkDSXZ-aQoCrQ8EA-18">
          <mxGeometry y="110" width="240" height="8" as="geometry" />
        </mxCell>
        <mxCell id="vlXrMkDSXZ-aQoCrQ8EA-21" value="+ NewEntry(): list&lt;div&gt;+ DisplayEntries(): void&lt;/div&gt;&lt;div&gt;+ Import(string): void&lt;/div&gt;&lt;div&gt;+ Export(string): void&lt;/div&gt;" style="text;strokeColor=none;fillColor=none;align=left;verticalAlign=top;spacingLeft=4;spacingRight=4;overflow=hidden;rotatable=0;points=[[0,0.5],[1,0.5]];portConstraint=eastwest;whiteSpace=wrap;html=1;" vertex="1" parent="vlXrMkDSXZ-aQoCrQ8EA-18">
          <mxGeometry y="118" width="240" height="72" as="geometry" />
        </mxCell>
        <mxCell id="vlXrMkDSXZ-aQoCrQ8EA-22" style="edgeStyle=orthogonalEdgeStyle;rounded=0;orthogonalLoop=1;jettySize=auto;html=1;exitX=1;exitY=0.5;exitDx=0;exitDy=0;" edge="1" parent="1" source="vlXrMkDSXZ-aQoCrQ8EA-6" target="vlXrMkDSXZ-aQoCrQ8EA-19">
          <mxGeometry relative="1" as="geometry" />
        </mxCell>
        <mxCell id="vlXrMkDSXZ-aQoCrQ8EA-23" style="edgeStyle=orthogonalEdgeStyle;rounded=0;orthogonalLoop=1;jettySize=auto;html=1;exitX=1;exitY=0.5;exitDx=0;exitDy=0;entryX=0.5;entryY=0;entryDx=0;entryDy=0;" edge="1" parent="1" source="vlXrMkDSXZ-aQoCrQ8EA-19" target="vlXrMkDSXZ-aQoCrQ8EA-13">
          <mxGeometry relative="1" as="geometry" />
        </mxCell>
      </root>
    </mxGraphModel>
  </diagram>
  <diagram id="BAOxL85dj8CAuoTJIq04" name="Explanation">
    <mxGraphModel dx="832" dy="439" grid="1" gridSize="10" guides="1" tooltips="1" connect="1" arrows="1" fold="1" page="1" pageScale="1" pageWidth="850" pageHeight="1100" math="0" shadow="0">
      <root>
        <mxCell id="0" />
        <mxCell id="1" parent="0" />
        <mxCell id="GFkAvMiqE0TDpQalShZz-1" value="Explanation" style="swimlane;fontStyle=0;childLayout=stackLayout;horizontal=1;startSize=26;fillColor=none;horizontalStack=0;resizeParent=1;resizeParentMax=0;resizeLast=0;collapsible=1;marginBottom=0;whiteSpace=wrap;html=1;" vertex="1" parent="1">
          <mxGeometry x="270" y="130" width="230" height="230" as="geometry" />
        </mxCell>
        <mxCell id="GFkAvMiqE0TDpQalShZz-2" value="The choice variable allows the user to choose either to write a new entry and export it or import entries from a saved entries file and display them.&amp;nbsp;&lt;div&gt;The prompts property has the entire list of prompts inside of it.&amp;nbsp;&lt;/div&gt;&lt;div&gt;The entries property will have a list of Entry class instances when the user choses to import and display.&lt;/div&gt;" style="text;strokeColor=none;fillColor=none;align=left;verticalAlign=top;spacingLeft=4;spacingRight=4;overflow=hidden;rotatable=0;points=[[0,0.5],[1,0.5]];portConstraint=eastwest;whiteSpace=wrap;html=1;" vertex="1" parent="GFkAvMiqE0TDpQalShZz-1">
          <mxGeometry y="26" width="230" height="204" as="geometry" />
        </mxCell>
      </root>
    </mxGraphModel>
  </diagram>
</mxfile>
